<svg id="C2-duo_Image" data-name="C2-duo Image" xmlns="http://www.w3.org/2000/svg" width="348.33" height="39.96" viewBox="0 0 348.33 39.96">
  <title>Shipping Graphics</title>
  <path d="M307.55,20.58c13.9,0,27.72.14,40.79-5.61v0.93c-1.54,4.79-3.13,9.56-4.55,14.38a2.8,2.8,0,0,0,.9,2.25c2.85,2.56,2,5-.05,7.44H9.26c-0.76-4.67-1.16-9.45-5-13A60.17,60.17,0,0,1,0,22.37V19.6l11.82,0.06V0h14V19.7Z"/>
  <g>
    <rect x="308.75" y="13.63" width="5" height="5" style="fill: #bcaa77"/>
    <rect x="302.75" y="13.63" width="5" height="5" style="fill: #bcaa77"/>
    <rect x="296.75" y="13.63" width="5" height="5" style="fill: #bcaa77"/>
    <rect x="290.75" y="13.63" width="5" height="5" style="fill: #bcaa77"/>
    <rect x="284.75" y="13.63" width="5" height="5" style="fill: #bcaa77"/>
    <rect x="278.75" y="13.63" width="5" height="5" style="fill: #bcaa77"/>
    <rect x="272.75" y="13.63" width="5" height="5" style="fill: #bcaa77"/>
    <rect x="266.75" y="13.63" width="5" height="5" style="fill: #bcaa77"/>
    <rect x="260.75" y="13.63" width="5" height="5" style="fill: #bcaa77"/>
    <rect x="254.75" y="13.63" width="5" height="5" style="fill: #bcaa77"/>
    <rect x="248.75" y="13.63" width="5" height="5" style="fill: #bcaa77"/>
    <rect x="242.75" y="13.63" width="5" height="5" style="fill: #bcaa77"/>
    <rect x="236.75" y="13.63" width="5" height="5" style="fill: #bcaa77"/>
    <rect x="230.75" y="13.63" width="5" height="5" style="fill: #bcaa77"/>
    <rect x="224.75" y="13.63" width="5" height="5" style="fill: #bcaa77"/>
    <rect x="218.75" y="13.63" width="5" height="5" style="fill: #bcaa77"/>
    <rect x="212.75" y="13.63" width="5" height="5" style="fill: #bcaa77"/>
    <rect x="206.75" y="13.63" width="5" height="5" style="fill: #bcaa77"/>
    <rect x="200.75" y="13.63" width="5" height="5" style="fill: #bcaa77"/>
    <rect x="194.75" y="13.63" width="5" height="5" style="fill: #bcaa77"/>
    <rect x="188.75" y="13.63" width="5" height="5" style="fill: #bcaa77"/>
    <rect x="182.75" y="13.63" width="5" height="5" style="fill: #bcaa77"/>
    <rect x="176.75" y="13.63" width="5" height="5" style="fill: #bcaa77"/>
    <rect x="170.75" y="13.63" width="5" height="5" style="fill: #bcaa77"/>
    <rect x="164.75" y="13.63" width="5" height="5" style="fill: #bcaa77"/>
    <rect x="158.75" y="13.63" width="5" height="5" style="fill: #bcaa77"/>
    <rect x="152.75" y="13.63" width="5" height="5" style="fill: #bcaa77"/>
    <rect x="146.75" y="13.63" width="5" height="5" style="fill: #bcaa77"/>
    <rect x="140.75" y="13.63" width="5" height="5" style="fill: #bcaa77"/>
    <rect x="134.75" y="13.63" width="5" height="5" style="fill: #bcaa77"/>
    <rect x="128.75" y="13.63" width="5" height="5" style="fill: #bcaa77"/>
    <rect x="122.75" y="13.63" width="5" height="5" style="fill: #bcaa77"/>
    <rect x="116.75" y="13.63" width="5" height="5" style="fill: #bcaa77"/>
    <rect x="110.75" y="13.63" width="5" height="5" style="fill: #bcaa77"/>
    <rect x="104.75" y="13.63" width="5" height="5" style="fill: #bcaa77"/>
    <rect x="98.75" y="13.63" width="5" height="5" style="fill: #bcaa77"/>
    <rect x="92.75" y="13.63" width="5" height="5" style="fill: #bcaa77"/>
    <rect x="86.75" y="13.63" width="5" height="5" style="fill: #bcaa77"/>
    <rect x="80.75" y="13.63" width="5" height="5" style="fill: #bcaa77"/>
    <rect x="74.75" y="13.63" width="5" height="5" style="fill: #bcaa77"/>
    <rect x="68.75" y="13.63" width="5" height="5" style="fill: #bcaa77"/>
    <rect x="62.75" y="13.63" width="5" height="5" style="fill: #bcaa77"/>
    <rect x="56.75" y="13.63" width="5" height="5" style="fill: #bcaa77"/>
    <rect x="50.75" y="13.63" width="5" height="5" style="fill: #bcaa77"/>
    <rect x="44.75" y="13.63" width="5" height="5" style="fill: #bcaa77"/>
    <rect x="38.75" y="13.63" width="5" height="5" style="fill: #bcaa77"/>
    <rect x="32.75" y="13.63" width="5" height="5" style="fill: #bcaa77"/>
    <rect x="26.75" y="13.63" width="5" height="5" style="fill: #bcaa77"/>
  </g>
  <g>
    <rect x="308.75" y="7.63" width="5" height="5" style="fill: #bcaa77"/>
    <rect x="302.75" y="7.63" width="5" height="5" style="fill: #bcaa77"/>
    <rect x="296.75" y="7.63" width="5" height="5" style="fill: #bcaa77"/>
    <rect x="290.75" y="7.63" width="5" height="5" style="fill: #bcaa77"/>
    <rect x="284.75" y="7.63" width="5" height="5" style="fill: #bcaa77"/>
    <rect x="278.75" y="7.63" width="5" height="5" style="fill: #bcaa77"/>
    <rect x="272.75" y="7.63" width="5" height="5" style="fill: #bcaa77"/>
    <rect x="266.75" y="7.63" width="5" height="5" style="fill: #bcaa77"/>
    <rect x="260.75" y="7.63" width="5" height="5" style="fill: #bcaa77"/>
    <rect x="254.75" y="7.63" width="5" height="5" style="fill: #bcaa77"/>
    <rect x="248.75" y="7.63" width="5" height="5" style="fill: #bcaa77"/>
    <rect x="242.75" y="7.63" width="5" height="5" style="fill: #bcaa77"/>
    <rect x="236.75" y="7.63" width="5" height="5" style="fill: #bcaa77"/>
    <rect x="230.75" y="7.63" width="5" height="5" style="fill: #bcaa77"/>
    <rect x="224.75" y="7.63" width="5" height="5" style="fill: #bcaa77"/>
    <rect x="218.75" y="7.63" width="5" height="5" style="fill: #bcaa77"/>
    <rect x="212.75" y="7.63" width="5" height="5" style="fill: #bcaa77"/>
    <rect x="206.75" y="7.63" width="5" height="5" style="fill: #bcaa77"/>
    <rect x="200.75" y="7.63" width="5" height="5" style="fill: #bcaa77"/>
    <rect x="194.75" y="7.63" width="5" height="5" style="fill: #bcaa77"/>
    <rect x="188.75" y="7.63" width="5" height="5" style="fill: #bcaa77"/>
    <rect x="182.75" y="7.63" width="5" height="5" style="fill: #bcaa77"/>
    <rect x="176.75" y="7.63" width="5" height="5" style="fill: #bcaa77"/>
    <rect x="170.75" y="7.63" width="5" height="5" style="fill: #bcaa77"/>
    <rect x="164.75" y="7.63" width="5" height="5" style="fill: #bcaa77"/>
    <rect x="158.75" y="7.63" width="5" height="5" style="fill: #bcaa77"/>
    <rect x="152.75" y="7.63" width="5" height="5" style="fill: #bcaa77"/>
    <rect x="146.75" y="7.63" width="5" height="5" style="fill: #bcaa77"/>
    <rect x="140.75" y="7.63" width="5" height="5" style="fill: #bcaa77"/>
    <rect x="134.75" y="7.63" width="5" height="5" style="fill: #bcaa77"/>
    <rect x="128.75" y="7.63" width="5" height="5" style="fill: #bcaa77"/>
    <rect x="122.75" y="7.63" width="5" height="5" style="fill: #bcaa77"/>
    <rect x="116.75" y="7.63" width="5" height="5" style="fill: #bcaa77"/>
    <rect x="110.75" y="7.63" width="5" height="5" style="fill: #bcaa77"/>
    <rect x="104.75" y="7.63" width="5" height="5" style="fill: #bcaa77"/>
    <rect x="98.75" y="7.63" width="5" height="5" style="fill: #bcaa77"/>
    <rect x="92.75" y="7.63" width="5" height="5" style="fill: #bcaa77"/>
    <rect x="86.75" y="7.63" width="5" height="5" style="fill: #bcaa77"/>
    <rect x="80.75" y="7.63" width="5" height="5" style="fill: #bcaa77"/>
    <rect x="74.75" y="7.63" width="5" height="5" style="fill: #bcaa77"/>
    <rect x="68.75" y="7.63" width="5" height="5" style="fill: #bcaa77"/>
    <rect x="62.75" y="7.63" width="5" height="5" style="fill: #bcaa77"/>
    <rect x="56.75" y="7.63" width="5" height="5" style="fill: #bcaa77"/>
    <rect x="50.75" y="7.63" width="5" height="5" style="fill: #bcaa77"/>
    <rect x="44.75" y="7.63" width="5" height="5" style="fill: #bcaa77"/>
    <rect x="38.75" y="7.63" width="5" height="5" style="fill: #bcaa77"/>
    <rect x="32.75" y="7.63" width="5" height="5" style="fill: #bcaa77"/>
    <rect x="26.75" y="7.63" width="5" height="5" style="fill: #bcaa77"/>
  </g>
  <g>
    <rect x="182.75" y="1.63" width="5" height="5" style="fill: #bcaa77"/>
    <rect x="176.75" y="1.63" width="5" height="5" style="fill: #bcaa77"/>
    <rect x="170.75" y="1.63" width="5" height="5" style="fill: #bcaa77"/>
    <rect x="164.75" y="1.63" width="5" height="5" style="fill: #bcaa77"/>
    <rect x="158.75" y="1.63" width="5" height="5" style="fill: #bcaa77"/>
    <rect x="152.75" y="1.63" width="5" height="5" style="fill: #bcaa77"/>
    <rect x="146.75" y="1.63" width="5" height="5" style="fill: #bcaa77"/>
    <rect x="140.75" y="1.63" width="5" height="5" style="fill: #bcaa77"/>
    <rect x="134.75" y="1.63" width="5" height="5" style="fill: #bcaa77"/>
    <rect x="128.75" y="1.63" width="5" height="5" style="fill: #bcaa77"/>
    <rect x="122.75" y="1.63" width="5" height="5" style="fill: #bcaa77"/>
    <rect x="116.75" y="1.63" width="5" height="5" style="fill: #bcaa77"/>
    <rect x="110.75" y="1.63" width="5" height="5" style="fill: #bcaa77"/>
    <rect x="104.75" y="1.63" width="5" height="5" style="fill: #bcaa77"/>
    <rect x="98.75" y="1.63" width="5" height="5" style="fill: #bcaa77"/>
    <rect x="92.75" y="1.63" width="5" height="5" style="fill: #bcaa77"/>
    <rect x="86.75" y="1.63" width="5" height="5" style="fill: #bcaa77"/>
    <rect x="80.75" y="1.63" width="5" height="5" style="fill: #bcaa77"/>
    <rect x="74.75" y="1.63" width="5" height="5" style="fill: #bcaa77"/>
    <rect x="68.75" y="1.63" width="5" height="5" style="fill: #bcaa77"/>
    <rect x="62.75" y="1.63" width="5" height="5" style="fill: #bcaa77"/>
    <rect x="56.75" y="1.63" width="5" height="5" style="fill: #bcaa77"/>
    <rect x="50.75" y="1.63" width="5" height="5" style="fill: #bcaa77"/>
    <rect x="44.75" y="1.63" width="5" height="5" style="fill: #bcaa77"/>
    <rect x="38.75" y="1.63" width="5" height="5" style="fill: #bcaa77"/>
    <rect x="32.75" y="1.63" width="5" height="5" style="fill: #bcaa77"/>
    <rect x="26.75" y="1.63" width="5" height="5" style="fill: #bcaa77"/>
  </g>
</svg>
