<svg id="C2-duo_Image" data-name="C2-duo Image" xmlns="http://www.w3.org/2000/svg" width="282" height="32.38" viewBox="0 0 282 32.38">
  <title>Shipping Graphics</title>
  <path d="M249,16.67c11.25,0,22.44.11,33-4.54v0.75c-1.25,3.88-2.54,7.75-3.68,11.65a2.27,2.27,0,0,0,.73,1.82c2.31,2.07,1.61,4,0,6H7.5c-0.62-3.79-.94-7.66-4.08-10.5A48.73,48.73,0,0,1,0,18.13V15.88l12,0V0H25.75V16Z"/>
  <g>
    <g>
      <rect x="200.75" y="10" width="5" height="5" style="fill: #bcaa77"/>
      <rect x="194.75" y="10" width="5" height="5" style="fill: #bcaa77"/>
      <rect x="188.75" y="10" width="5" height="5" style="fill: #bcaa77"/>
      <rect x="182.75" y="10" width="5" height="5" style="fill: #bcaa77"/>
      <rect x="176.75" y="10" width="5" height="5" style="fill: #bcaa77"/>
      <rect x="170.75" y="10" width="5" height="5" style="fill: #bcaa77"/>
      <rect x="164.75" y="10" width="5" height="5" style="fill: #bcaa77"/>
      <rect x="158.75" y="10" width="5" height="5" style="fill: #bcaa77"/>
      <rect x="152.75" y="10" width="5" height="5" style="fill: #bcaa77"/>
      <rect x="146.75" y="10" width="5" height="5" style="fill: #bcaa77"/>
      <rect x="140.75" y="10" width="5" height="5" style="fill: #bcaa77"/>
      <rect x="134.75" y="10" width="5" height="5" style="fill: #bcaa77"/>
      <rect x="128.75" y="10" width="5" height="5" style="fill: #bcaa77"/>
      <rect x="122.75" y="10" width="5" height="5" style="fill: #bcaa77"/>
      <rect x="116.75" y="10" width="5" height="5" style="fill: #bcaa77"/>
      <rect x="110.75" y="10" width="5" height="5" style="fill: #bcaa77"/>
      <rect x="104.75" y="10" width="5" height="5" style="fill: #bcaa77"/>
      <rect x="98.75" y="10" width="5" height="5" style="fill: #bcaa77"/>
      <rect x="92.75" y="10" width="5" height="5" style="fill: #bcaa77"/>
      <rect x="86.75" y="10" width="5" height="5" style="fill: #bcaa77"/>
      <rect x="80.75" y="10" width="5" height="5" style="fill: #bcaa77"/>
      <rect x="74.75" y="10" width="5" height="5" style="fill: #bcaa77"/>
      <rect x="68.75" y="10" width="5" height="5" style="fill: #bcaa77"/>
      <rect x="62.75" y="10" width="5" height="5" style="fill: #bcaa77"/>
      <rect x="56.75" y="10" width="5" height="5" style="fill: #bcaa77"/>
      <rect x="50.75" y="10" width="5" height="5" style="fill: #bcaa77"/>
      <rect x="44.75" y="10" width="5" height="5" style="fill: #bcaa77"/>
      <rect x="38.75" y="10" width="5" height="5" style="fill: #bcaa77"/>
      <rect x="32.75" y="10" width="5" height="5" style="fill: #bcaa77"/>
      <rect x="26.75" y="10" width="5" height="5" style="fill: #bcaa77"/>
    </g>
    <g>
      <rect x="200.75" y="4" width="5" height="5" style="fill: #bcaa77"/>
      <rect x="194.75" y="4" width="5" height="5" style="fill: #bcaa77"/>
      <rect x="188.75" y="4" width="5" height="5" style="fill: #bcaa77"/>
      <rect x="182.75" y="4" width="5" height="5" style="fill: #bcaa77"/>
      <rect x="176.75" y="4" width="5" height="5" style="fill: #bcaa77"/>
      <rect x="170.75" y="4" width="5" height="5" style="fill: #bcaa77"/>
      <rect x="164.75" y="4" width="5" height="5" style="fill: #bcaa77"/>
      <rect x="158.75" y="4" width="5" height="5" style="fill: #bcaa77"/>
      <rect x="152.75" y="4" width="5" height="5" style="fill: #bcaa77"/>
      <rect x="146.75" y="4" width="5" height="5" style="fill: #bcaa77"/>
      <rect x="140.75" y="4" width="5" height="5" style="fill: #bcaa77"/>
      <rect x="134.75" y="4" width="5" height="5" style="fill: #bcaa77"/>
      <rect x="128.75" y="4" width="5" height="5" style="fill: #bcaa77"/>
      <rect x="122.75" y="4" width="5" height="5" style="fill: #bcaa77"/>
      <rect x="116.75" y="4" width="5" height="5" style="fill: #bcaa77"/>
      <rect x="110.75" y="4" width="5" height="5" style="fill: #bcaa77"/>
      <rect x="104.75" y="4" width="5" height="5" style="fill: #bcaa77"/>
      <rect x="98.75" y="4" width="5" height="5" style="fill: #bcaa77"/>
      <rect x="92.75" y="4" width="5" height="5" style="fill: #bcaa77"/>
      <rect x="86.75" y="4" width="5" height="5" style="fill: #bcaa77"/>
      <rect x="80.75" y="4" width="5" height="5" style="fill: #bcaa77"/>
      <rect x="74.75" y="4" width="5" height="5" style="fill: #bcaa77"/>
      <rect x="68.75" y="4" width="5" height="5" style="fill: #bcaa77"/>
      <rect x="62.75" y="4" width="5" height="5" style="fill: #bcaa77"/>
      <rect x="56.75" y="4" width="5" height="5" style="fill: #bcaa77"/>
      <rect x="50.75" y="4" width="5" height="5" style="fill: #bcaa77"/>
      <rect x="44.75" y="4" width="5" height="5" style="fill: #bcaa77"/>
      <rect x="38.75" y="4" width="5" height="5" style="fill: #bcaa77"/>
      <rect x="32.75" y="4" width="5" height="5" style="fill: #bcaa77"/>
      <rect x="26.75" y="4" width="5" height="5" style="fill: #bcaa77"/>
    </g>
  </g>
</svg>
