<svg id="C2-duo_Image" data-name="C2-duo Image" xmlns="http://www.w3.org/2000/svg" width="282" height="32.38" viewBox="0 0 282 32.38">
  <title>Shipping Graphics</title>
  <path d="M249,16.67c11.25,0,22.44.11,33-4.54v0.75c-1.25,3.88-2.54,7.75-3.68,11.65a2.27,2.27,0,0,0,.73,1.82c2.31,2.07,1.61,4,0,6H7.5c-0.62-3.79-.94-7.66-4.08-10.5A48.73,48.73,0,0,1,0,18.13V15.88l12,0V0H25.75V16Z"/>
  <g>
    <g>
      <rect x="243" y="9.96" width="5" height="5" style="fill: #bcaa77"/>
      <rect x="237" y="9.96" width="5" height="5" style="fill: #bcaa77"/>
      <rect x="231" y="9.96" width="5" height="5" style="fill: #bcaa77"/>
      <rect x="225" y="9.96" width="5" height="5" style="fill: #bcaa77"/>
      <rect x="219" y="9.96" width="5" height="5" style="fill: #bcaa77"/>
      <rect x="213" y="9.96" width="5" height="5" style="fill: #bcaa77"/>
      <rect x="207" y="9.96" width="5" height="5" style="fill: #bcaa77"/>
      <rect x="201" y="9.96" width="5" height="5" style="fill: #bcaa77"/>
      <rect x="195" y="9.96" width="5" height="5" style="fill: #bcaa77"/>
      <rect x="189" y="9.96" width="5" height="5" style="fill: #bcaa77"/>
      <rect x="183" y="9.96" width="5" height="5" style="fill: #bcaa77"/>
      <rect x="177" y="9.96" width="5" height="5" style="fill: #bcaa77"/>
      <rect x="171" y="9.96" width="5" height="5" style="fill: #bcaa77"/>
      <rect x="165" y="9.96" width="5" height="5" style="fill: #bcaa77"/>
      <rect x="159" y="9.96" width="5" height="5" style="fill: #bcaa77"/>
      <rect x="153" y="9.96" width="5" height="5" style="fill: #bcaa77"/>
      <rect x="147" y="9.96" width="5" height="5" style="fill: #bcaa77"/>
      <rect x="141" y="9.96" width="5" height="5" style="fill: #bcaa77"/>
      <rect x="135" y="9.96" width="5" height="5" style="fill: #bcaa77"/>
      <rect x="129" y="9.96" width="5" height="5" style="fill: #bcaa77"/>
      <rect x="123" y="9.96" width="5" height="5" style="fill: #bcaa77"/>
      <rect x="117" y="9.96" width="5" height="5" style="fill: #bcaa77"/>
      <rect x="111" y="9.96" width="5" height="5" style="fill: #bcaa77"/>
      <rect x="105" y="9.96" width="5" height="5" style="fill: #bcaa77"/>
      <rect x="99" y="9.96" width="5" height="5" style="fill: #bcaa77"/>
      <rect x="93" y="9.96" width="5" height="5" style="fill: #bcaa77"/>
      <rect x="87" y="9.96" width="5" height="5" style="fill: #bcaa77"/>
      <rect x="81" y="9.96" width="5" height="5" style="fill: #bcaa77"/>
      <rect x="75" y="9.96" width="5" height="5" style="fill: #bcaa77"/>
      <rect x="69" y="9.96" width="5" height="5" style="fill: #bcaa77"/>
      <rect x="63" y="9.96" width="5" height="5" style="fill: #bcaa77"/>
      <rect x="57" y="9.96" width="5" height="5" style="fill: #bcaa77"/>
      <rect x="51" y="9.96" width="5" height="5" style="fill: #bcaa77"/>
      <rect x="45" y="9.96" width="5" height="5" style="fill: #bcaa77"/>
      <rect x="39" y="9.96" width="5" height="5" style="fill: #bcaa77"/>
      <rect x="33" y="9.96" width="5" height="5" style="fill: #bcaa77"/>
      <rect x="27" y="9.96" width="5" height="5" style="fill: #bcaa77"/>
    </g>
    <g>
      <rect x="243" y="3.96" width="5" height="5" style="fill: #bcaa77"/>
      <rect x="237" y="3.96" width="5" height="5" style="fill: #bcaa77"/>
      <rect x="231" y="3.96" width="5" height="5" style="fill: #bcaa77"/>
      <rect x="225" y="3.96" width="5" height="5" style="fill: #bcaa77"/>
      <rect x="219" y="3.96" width="5" height="5" style="fill: #bcaa77"/>
      <rect x="213" y="3.96" width="5" height="5" style="fill: #bcaa77"/>
      <rect x="207" y="3.96" width="5" height="5" style="fill: #bcaa77"/>
      <rect x="201" y="3.96" width="5" height="5" style="fill: #bcaa77"/>
      <rect x="195" y="3.96" width="5" height="5" style="fill: #bcaa77"/>
      <rect x="189" y="3.96" width="5" height="5" style="fill: #bcaa77"/>
      <rect x="183" y="3.96" width="5" height="5" style="fill: #bcaa77"/>
      <rect x="177" y="3.96" width="5" height="5" style="fill: #bcaa77"/>
      <rect x="171" y="3.96" width="5" height="5" style="fill: #bcaa77"/>
      <rect x="165" y="3.96" width="5" height="5" style="fill: #bcaa77"/>
      <rect x="159" y="3.96" width="5" height="5" style="fill: #bcaa77"/>
      <rect x="153" y="3.96" width="5" height="5" style="fill: #bcaa77"/>
      <rect x="147" y="3.96" width="5" height="5" style="fill: #bcaa77"/>
      <rect x="141" y="3.96" width="5" height="5" style="fill: #bcaa77"/>
      <rect x="135" y="3.96" width="5" height="5" style="fill: #bcaa77"/>
      <rect x="129" y="3.96" width="5" height="5" style="fill: #bcaa77"/>
      <rect x="123" y="3.96" width="5" height="5" style="fill: #bcaa77"/>
      <rect x="117" y="3.96" width="5" height="5" style="fill: #bcaa77"/>
      <rect x="111" y="3.96" width="5" height="5" style="fill: #bcaa77"/>
      <rect x="105" y="3.96" width="5" height="5" style="fill: #bcaa77"/>
      <rect x="99" y="3.96" width="5" height="5" style="fill: #bcaa77"/>
      <rect x="93" y="3.96" width="5" height="5" style="fill: #bcaa77"/>
      <rect x="87" y="3.96" width="5" height="5" style="fill: #bcaa77"/>
      <rect x="81" y="3.96" width="5" height="5" style="fill: #bcaa77"/>
      <rect x="75" y="3.96" width="5" height="5" style="fill: #bcaa77"/>
      <rect x="69" y="3.96" width="5" height="5" style="fill: #bcaa77"/>
      <rect x="63" y="3.96" width="5" height="5" style="fill: #bcaa77"/>
      <rect x="57" y="3.96" width="5" height="5" style="fill: #bcaa77"/>
      <rect x="51" y="3.96" width="5" height="5" style="fill: #bcaa77"/>
      <rect x="45" y="3.96" width="5" height="5" style="fill: #bcaa77"/>
      <rect x="39" y="3.96" width="5" height="5" style="fill: #bcaa77"/>
      <rect x="33" y="3.96" width="5" height="5" style="fill: #bcaa77"/>
      <rect x="27" y="3.96" width="5" height="5" style="fill: #bcaa77"/>
    </g>
  </g>
</svg>
