<svg id="Layer_1" data-name="Layer 1" xmlns="http://www.w3.org/2000/svg" width="200" height="107.47" viewBox="0 0 200 107.47">
  <defs>
    <style>
      .cls-1, .cls-3 {
        opacity: 0.51;
      }

      .cls-2, .cls-3 {
        fill: #878787;
      }

      .cls-3 {
        font-size: 21px;
        font-family: Open Sans;
        font-weight: 700;
      }
    </style>
  </defs>
  <title>rotateimg</title>
  <g class="cls-1">
    <path class="cls-2" d="M0,42.54a82.49,82.49,0,0,1,3-8.36c2.31-4.85,6.13-8.52,10.32-11.76,10.36-8,22.31-12.64,34.81-16A188.63,188.63,0,0,1,88,.32,222.3,222.3,0,0,1,135,2.75,153.18,153.18,0,0,1,163.6,10c8.86,3.26,17.3,7.4,24.58,13.58C194,28.51,198.42,34.25,199.75,42a2.72,2.72,0,0,0,.25.58V48a70.2,70.2,0,0,1-2.51,7.36c-2.76,6-7.45,10.29-12.66,14.08-7.78,5.66-16.49,9.43-25.57,12.44A155.15,155.15,0,0,1,128,88.67c-7.92.9-15.91,1.2-23.87,1.74-0.83.06-1.67,0-3,0,1.88,1.92,3.4,3.5,5,5.05,2,2,4,3.95,6,5.95,1.53,1.54,1.85,3,1,4.43a3,3,0,0,1-4.66.87c-2.17-1.87-4.17-3.94-6.2-6Q96,94.58,89.81,88.35c-0.3-.3-0.54-0.65-1.08-1.3,1.73-1.63,3.49-3.23,5.17-4.9q6.58-6.51,13.11-13.08l0.56-.57c1.64-1.6,3.66-1.81,5-.51s1.23,3.39-.46,5.09q-3.77,3.79-7.58,7.54c-1,1-2,1.87-3.39,3.13a14.73,14.73,0,0,0,1.67.23,202.12,202.12,0,0,0,37.11-3.82,137.24,137.24,0,0,0,25.81-7.64c7.89-3.29,15.4-7.25,21.42-13.53,2.79-2.92,5.06-6.13,6-10.18,1.37-6.16-.69-11.3-4.62-15.9-5.64-6.6-13-10.75-20.76-14.15-13.52-5.91-27.76-9-42.35-10.85a206.58,206.58,0,0,0-32.83-1.4,179.51,179.51,0,0,0-49.6,8.21A93.91,93.91,0,0,0,22.17,24,41.64,41.64,0,0,0,10.09,34.74,19.4,19.4,0,0,0,6.42,45C6.22,47.54,4.35,49,2.25,48.17,1.36,47.81.74,46.78,0,46.05Q0,44.29,0,42.54Z"/>
  </g>
  <text class="cls-3" transform="translate(66 51.17)">Rotate</text>
</svg>
