<svg id="C2-duo_Image" data-name="C2-duo Image" xmlns="http://www.w3.org/2000/svg" width="228.8" height="26.27" viewBox="0 0 228.8 26.27">
  <defs>
    <style>
      .cls-1 {
        fill: #bfbfbf;
      }

      .cls-2 {
        fill: #009688;
      }
    </style>
  </defs>
  <title>shipcaps</title>
  <path class="cls-1" d="M202,12.71c9.13,0,18.21.9,26.79-2.87v0.61c-1,3.15-2.06,6.28-3,9.45a1.84,1.84,0,0,0,.59,1.48c1.87,1.68,1.31,3.27,0,4.89H6.09c-0.5-3.07-.76-6.21-3.31-8.52a39.54,39.54,0,0,1-2.77-3V12.88l12.45,0V0H26.54V12.95Z"/>
  <g>
    <rect class="cls-2" x="172" y="6.57" width="5" height="5"/>
    <rect class="cls-2" x="166" y="6.57" width="5" height="5"/>
    <rect class="cls-2" x="160" y="6.57" width="5" height="5"/>
    <rect class="cls-2" x="154" y="6.57" width="5" height="5"/>
    <rect class="cls-2" x="148" y="6.57" width="5" height="5"/>
    <rect class="cls-2" x="142" y="6.57" width="5" height="5"/>
    <rect class="cls-2" x="136" y="6.57" width="5" height="5"/>
    <rect class="cls-2" x="130" y="6.57" width="5" height="5"/>
    <rect class="cls-2" x="124" y="6.57" width="5" height="5"/>
    <rect class="cls-2" x="118" y="6.57" width="5" height="5"/>
    <rect class="cls-2" x="112" y="6.57" width="5" height="5"/>
    <rect class="cls-2" x="106" y="6.57" width="5" height="5"/>
    <rect class="cls-2" x="100" y="6.57" width="5" height="5"/>
    <rect class="cls-2" x="94" y="6.57" width="5" height="5"/>
    <rect class="cls-2" x="88" y="6.57" width="5" height="5"/>
    <rect class="cls-2" x="82" y="6.57" width="5" height="5"/>
    <rect class="cls-2" x="76" y="6.57" width="5" height="5"/>
    <rect class="cls-2" x="70" y="6.57" width="5" height="5"/>
    <rect class="cls-2" x="64" y="6.57" width="5" height="5"/>
    <rect class="cls-2" x="58" y="6.57" width="5" height="5"/>
    <rect class="cls-2" x="52" y="6.57" width="5" height="5"/>
    <rect class="cls-2" x="46" y="6.57" width="5" height="5"/>
    <rect class="cls-2" x="40" y="6.57" width="5" height="5"/>
    <rect class="cls-2" x="34" y="6.57" width="5" height="5"/>
    <rect class="cls-2" x="28" y="6.57" width="5" height="5"/>
  </g>
</svg>
