<svg id="C2-duo_Image" data-name="C2-duo Image" xmlns="http://www.w3.org/2000/svg" width="282" height="32.38" viewBox="0 0 282 32.38">
  <defs>
    <style>
      .cls-1 {
        fill: #bfbfbf;
      }

      .cls-2 {
        fill: #009688;
      }
    </style>
  </defs>
  <title>shipcaps</title>
  <path class="cls-1" d="M249,15.67c11.25,0,22.44,1.11,33-3.54v0.75c-1.25,3.88-2.54,7.75-3.68,11.65a2.27,2.27,0,0,0,.73,1.82c2.31,2.07,1.61,4,0,6H7.5c-0.62-3.79-.94-7.66-4.08-10.5A48.73,48.73,0,0,1,0,18.13V15.88l12,0V0H25.75V16Z"/>
  <g>
    <rect class="cls-2" x="51" y="3.75" width="5" height="5"/>
    <rect class="cls-2" x="45" y="3.75" width="5" height="5"/>
    <rect class="cls-2" x="39" y="3.75" width="5" height="5"/>
    <rect class="cls-2" x="33" y="3.75" width="5" height="5"/>
    <rect class="cls-2" x="27" y="3.75" width="5" height="5"/>
  </g>
  <g>
    <rect class="cls-2" x="261" y="9.59" width="5" height="5"/>
    <rect class="cls-2" x="255" y="9.59" width="5" height="5"/>
    <rect class="cls-2" x="249" y="9.59" width="5" height="5"/>
    <rect class="cls-2" x="243" y="9.59" width="5" height="5"/>
    <rect class="cls-2" x="237" y="9.59" width="5" height="5"/>
    <rect class="cls-2" x="231" y="9.59" width="5" height="5"/>
    <rect class="cls-2" x="225" y="9.59" width="5" height="5"/>
    <rect class="cls-2" x="219" y="9.59" width="5" height="5"/>
    <rect class="cls-2" x="213" y="9.59" width="5" height="5"/>
    <rect class="cls-2" x="207" y="9.59" width="5" height="5"/>
    <rect class="cls-2" x="201" y="9.59" width="5" height="5"/>
    <rect class="cls-2" x="195" y="9.59" width="5" height="5"/>
    <rect class="cls-2" x="189" y="9.59" width="5" height="5"/>
    <rect class="cls-2" x="183" y="9.59" width="5" height="5"/>
    <rect class="cls-2" x="177" y="9.59" width="5" height="5"/>
    <rect class="cls-2" x="171" y="9.59" width="5" height="5"/>
    <rect class="cls-2" x="165" y="9.59" width="5" height="5"/>
    <rect class="cls-2" x="159" y="9.59" width="5" height="5"/>
    <rect class="cls-2" x="153" y="9.59" width="5" height="5"/>
    <rect class="cls-2" x="147" y="9.59" width="5" height="5"/>
    <rect class="cls-2" x="141" y="9.59" width="5" height="5"/>
    <rect class="cls-2" x="135" y="9.59" width="5" height="5"/>
    <rect class="cls-2" x="129" y="9.59" width="5" height="5"/>
    <rect class="cls-2" x="123" y="9.59" width="5" height="5"/>
    <rect class="cls-2" x="117" y="9.59" width="5" height="5"/>
    <rect class="cls-2" x="111" y="9.59" width="5" height="5"/>
    <rect class="cls-2" x="105" y="9.59" width="5" height="5"/>
    <rect class="cls-2" x="99" y="9.59" width="5" height="5"/>
    <rect class="cls-2" x="93" y="9.59" width="5" height="5"/>
    <rect class="cls-2" x="87" y="9.59" width="5" height="5"/>
    <rect class="cls-2" x="81" y="9.59" width="5" height="5"/>
    <rect class="cls-2" x="75" y="9.59" width="5" height="5"/>
    <rect class="cls-2" x="69" y="9.59" width="5" height="5"/>
    <rect class="cls-2" x="63" y="9.59" width="5" height="5"/>
    <rect class="cls-2" x="57" y="9.59" width="5" height="5"/>
    <rect class="cls-2" x="51" y="9.59" width="5" height="5"/>
    <rect class="cls-2" x="45" y="9.59" width="5" height="5"/>
    <rect class="cls-2" x="39" y="9.59" width="5" height="5"/>
    <rect class="cls-2" x="33" y="9.59" width="5" height="5"/>
    <rect class="cls-2" x="27" y="9.59" width="5" height="5"/>
  </g>
</svg>
