<svg id="C2-duo_Image" data-name="C2-duo Image" xmlns="http://www.w3.org/2000/svg" width="425.67" height="48.84" viewBox="0 0 425.67 48.84">
  <defs>
    <style>
      .cls-1 {
        fill: #009688;
      }

      .cls-2 {
        fill: #bfbfbf;
      }
    </style>
  </defs>
  <title>shipcaps</title>
  <g>
    <rect class="cls-1" x="380.75" y="18.14" width="5" height="5"/>
    <rect class="cls-1" x="374.75" y="18.14" width="5" height="5"/>
    <rect class="cls-1" x="368.75" y="18.14" width="5" height="5"/>
    <rect class="cls-1" x="362.75" y="18.14" width="5" height="5"/>
    <rect class="cls-1" x="356.75" y="18.14" width="5" height="5"/>
    <rect class="cls-1" x="350.75" y="18.14" width="5" height="5"/>
    <rect class="cls-1" x="344.75" y="18.14" width="5" height="5"/>
    <rect class="cls-1" x="338.75" y="18.14" width="5" height="5"/>
    <rect class="cls-1" x="332.75" y="18.14" width="5" height="5"/>
    <rect class="cls-1" x="326.75" y="18.14" width="5" height="5"/>
    <rect class="cls-1" x="320.75" y="18.14" width="5" height="5"/>
    <rect class="cls-1" x="314.75" y="18.14" width="5" height="5"/>
    <rect class="cls-1" x="308.75" y="18.14" width="5" height="5"/>
    <rect class="cls-1" x="302.75" y="18.14" width="5" height="5"/>
    <rect class="cls-1" x="296.75" y="18.14" width="5" height="5"/>
    <rect class="cls-1" x="290.75" y="18.14" width="5" height="5"/>
    <rect class="cls-1" x="284.75" y="18.14" width="5" height="5"/>
    <rect class="cls-1" x="278.75" y="18.14" width="5" height="5"/>
    <rect class="cls-1" x="272.75" y="18.14" width="5" height="5"/>
    <rect class="cls-1" x="266.75" y="18.14" width="5" height="5"/>
    <rect class="cls-1" x="260.75" y="18.14" width="5" height="5"/>
    <rect class="cls-1" x="254.75" y="18.14" width="5" height="5"/>
    <rect class="cls-1" x="248.75" y="18.14" width="5" height="5"/>
    <rect class="cls-1" x="242.75" y="18.14" width="5" height="5"/>
    <rect class="cls-1" x="236.75" y="18.14" width="5" height="5"/>
    <rect class="cls-1" x="230.75" y="18.14" width="5" height="5"/>
    <rect class="cls-1" x="224.75" y="18.14" width="5" height="5"/>
    <rect class="cls-1" x="218.75" y="18.14" width="5" height="5"/>
    <rect class="cls-1" x="212.75" y="18.14" width="5" height="5"/>
    <rect class="cls-1" x="206.75" y="18.14" width="5" height="5"/>
    <rect class="cls-1" x="200.75" y="18.14" width="5" height="5"/>
    <rect class="cls-1" x="194.75" y="18.14" width="5" height="5"/>
    <rect class="cls-1" x="188.75" y="18.14" width="5" height="5"/>
    <rect class="cls-1" x="182.75" y="18.14" width="5" height="5"/>
    <rect class="cls-1" x="176.75" y="18.14" width="5" height="5"/>
    <rect class="cls-1" x="170.75" y="18.14" width="5" height="5"/>
    <rect class="cls-1" x="164.75" y="18.14" width="5" height="5"/>
    <rect class="cls-1" x="158.75" y="18.14" width="5" height="5"/>
    <rect class="cls-1" x="152.75" y="18.14" width="5" height="5"/>
    <rect class="cls-1" x="146.75" y="18.14" width="5" height="5"/>
    <rect class="cls-1" x="140.75" y="18.14" width="5" height="5"/>
    <rect class="cls-1" x="134.75" y="18.14" width="5" height="5"/>
    <rect class="cls-1" x="128.75" y="18.14" width="5" height="5"/>
    <rect class="cls-1" x="122.75" y="18.14" width="5" height="5"/>
    <rect class="cls-1" x="116.75" y="18.14" width="5" height="5"/>
    <rect class="cls-1" x="110.75" y="18.14" width="5" height="5"/>
    <rect class="cls-1" x="104.75" y="18.14" width="5" height="5"/>
    <rect class="cls-1" x="98.75" y="18.14" width="5" height="5"/>
    <rect class="cls-1" x="92.75" y="18.14" width="5" height="5"/>
    <rect class="cls-1" x="86.75" y="18.14" width="5" height="5"/>
    <rect class="cls-1" x="80.75" y="18.14" width="5" height="5"/>
    <rect class="cls-1" x="74.75" y="18.14" width="5" height="5"/>
    <rect class="cls-1" x="68.75" y="18.14" width="5" height="5"/>
    <rect class="cls-1" x="62.75" y="18.14" width="5" height="5"/>
    <rect class="cls-1" x="56.75" y="18.14" width="5" height="5"/>
    <rect class="cls-1" x="50.75" y="18.14" width="5" height="5"/>
    <rect class="cls-1" x="44.75" y="18.14" width="5" height="5"/>
    <rect class="cls-1" x="38.75" y="18.14" width="5" height="5"/>
    <rect class="cls-1" x="32.75" y="18.14" width="5" height="5"/>
    <rect class="cls-1" x="26.75" y="18.14" width="5" height="5"/>
  </g>
  <path class="cls-2" d="M375.82,25.14c17,0,33.88.17,49.84-6.85v1.13c-1.88,5.85-3.83,11.68-5.56,17.58a3.42,3.42,0,0,0,1.1,2.75c3.48,3.13,2.44,6.08-.07,9.09H11.32C10.39,43.13,9.91,37.28,5.16,33A73.53,73.53,0,0,1,0,27.34V23.95L11.45,24V0H25.54V24.07Z"/>
  <g>
    <rect class="cls-1" x="380.75" y="12.14" width="5" height="5"/>
    <rect class="cls-1" x="374.75" y="12.14" width="5" height="5"/>
    <rect class="cls-1" x="368.75" y="12.14" width="5" height="5"/>
    <rect class="cls-1" x="362.75" y="12.14" width="5" height="5"/>
    <rect class="cls-1" x="356.75" y="12.14" width="5" height="5"/>
    <rect class="cls-1" x="350.75" y="12.14" width="5" height="5"/>
    <rect class="cls-1" x="344.75" y="12.14" width="5" height="5"/>
    <rect class="cls-1" x="338.75" y="12.14" width="5" height="5"/>
    <rect class="cls-1" x="332.75" y="12.14" width="5" height="5"/>
    <rect class="cls-1" x="326.75" y="12.14" width="5" height="5"/>
    <rect class="cls-1" x="320.75" y="12.14" width="5" height="5"/>
    <rect class="cls-1" x="314.75" y="12.14" width="5" height="5"/>
    <rect class="cls-1" x="308.75" y="12.14" width="5" height="5"/>
    <rect class="cls-1" x="302.75" y="12.14" width="5" height="5"/>
    <rect class="cls-1" x="296.75" y="12.14" width="5" height="5"/>
    <rect class="cls-1" x="290.75" y="12.14" width="5" height="5"/>
    <rect class="cls-1" x="284.75" y="12.14" width="5" height="5"/>
    <rect class="cls-1" x="278.75" y="12.14" width="5" height="5"/>
    <rect class="cls-1" x="272.75" y="12.14" width="5" height="5"/>
    <rect class="cls-1" x="266.75" y="12.14" width="5" height="5"/>
    <rect class="cls-1" x="260.75" y="12.14" width="5" height="5"/>
    <rect class="cls-1" x="254.75" y="12.14" width="5" height="5"/>
    <rect class="cls-1" x="248.75" y="12.14" width="5" height="5"/>
    <rect class="cls-1" x="242.75" y="12.14" width="5" height="5"/>
    <rect class="cls-1" x="236.75" y="12.14" width="5" height="5"/>
    <rect class="cls-1" x="230.75" y="12.14" width="5" height="5"/>
    <rect class="cls-1" x="224.75" y="12.14" width="5" height="5"/>
    <rect class="cls-1" x="218.75" y="12.14" width="5" height="5"/>
    <rect class="cls-1" x="212.75" y="12.14" width="5" height="5"/>
    <rect class="cls-1" x="206.75" y="12.14" width="5" height="5"/>
    <rect class="cls-1" x="200.75" y="12.14" width="5" height="5"/>
    <rect class="cls-1" x="194.75" y="12.14" width="5" height="5"/>
    <rect class="cls-1" x="188.75" y="12.14" width="5" height="5"/>
    <rect class="cls-1" x="182.75" y="12.14" width="5" height="5"/>
    <rect class="cls-1" x="176.75" y="12.14" width="5" height="5"/>
    <rect class="cls-1" x="170.75" y="12.14" width="5" height="5"/>
    <rect class="cls-1" x="164.75" y="12.14" width="5" height="5"/>
    <rect class="cls-1" x="158.75" y="12.14" width="5" height="5"/>
    <rect class="cls-1" x="152.75" y="12.14" width="5" height="5"/>
    <rect class="cls-1" x="146.75" y="12.14" width="5" height="5"/>
    <rect class="cls-1" x="140.75" y="12.14" width="5" height="5"/>
    <rect class="cls-1" x="134.75" y="12.14" width="5" height="5"/>
    <rect class="cls-1" x="128.75" y="12.14" width="5" height="5"/>
    <rect class="cls-1" x="122.75" y="12.14" width="5" height="5"/>
    <rect class="cls-1" x="116.75" y="12.14" width="5" height="5"/>
    <rect class="cls-1" x="110.75" y="12.14" width="5" height="5"/>
    <rect class="cls-1" x="104.75" y="12.14" width="5" height="5"/>
    <rect class="cls-1" x="98.75" y="12.14" width="5" height="5"/>
    <rect class="cls-1" x="92.75" y="12.14" width="5" height="5"/>
    <rect class="cls-1" x="86.75" y="12.14" width="5" height="5"/>
    <rect class="cls-1" x="80.75" y="12.14" width="5" height="5"/>
    <rect class="cls-1" x="74.75" y="12.14" width="5" height="5"/>
    <rect class="cls-1" x="68.75" y="12.14" width="5" height="5"/>
    <rect class="cls-1" x="62.75" y="12.14" width="5" height="5"/>
    <rect class="cls-1" x="56.75" y="12.14" width="5" height="5"/>
    <rect class="cls-1" x="50.75" y="12.14" width="5" height="5"/>
    <rect class="cls-1" x="44.75" y="12.14" width="5" height="5"/>
    <rect class="cls-1" x="38.75" y="12.14" width="5" height="5"/>
    <rect class="cls-1" x="32.75" y="12.14" width="5" height="5"/>
    <rect class="cls-1" x="26.75" y="12.14" width="5" height="5"/>
  </g>
  <g>
    <rect class="cls-1" x="380.75" y="6.14" width="5" height="5"/>
    <rect class="cls-1" x="374.75" y="6.14" width="5" height="5"/>
    <rect class="cls-1" x="368.75" y="6.14" width="5" height="5"/>
    <rect class="cls-1" x="362.75" y="6.14" width="5" height="5"/>
    <rect class="cls-1" x="356.75" y="6.14" width="5" height="5"/>
    <rect class="cls-1" x="350.75" y="6.14" width="5" height="5"/>
    <rect class="cls-1" x="344.75" y="6.14" width="5" height="5"/>
    <rect class="cls-1" x="338.75" y="6.14" width="5" height="5"/>
    <rect class="cls-1" x="332.75" y="6.14" width="5" height="5"/>
    <rect class="cls-1" x="326.75" y="6.14" width="5" height="5"/>
    <rect class="cls-1" x="320.75" y="6.14" width="5" height="5"/>
    <rect class="cls-1" x="314.75" y="6.14" width="5" height="5"/>
    <rect class="cls-1" x="308.75" y="6.14" width="5" height="5"/>
    <rect class="cls-1" x="302.75" y="6.14" width="5" height="5"/>
    <rect class="cls-1" x="296.75" y="6.14" width="5" height="5"/>
    <rect class="cls-1" x="290.75" y="6.14" width="5" height="5"/>
    <rect class="cls-1" x="284.75" y="6.14" width="5" height="5"/>
    <rect class="cls-1" x="278.75" y="6.14" width="5" height="5"/>
    <rect class="cls-1" x="272.75" y="6.14" width="5" height="5"/>
    <rect class="cls-1" x="266.75" y="6.14" width="5" height="5"/>
    <rect class="cls-1" x="260.75" y="6.14" width="5" height="5"/>
    <rect class="cls-1" x="254.75" y="6.14" width="5" height="5"/>
    <rect class="cls-1" x="248.75" y="6.14" width="5" height="5"/>
    <rect class="cls-1" x="242.75" y="6.14" width="5" height="5"/>
    <rect class="cls-1" x="236.75" y="6.14" width="5" height="5"/>
    <rect class="cls-1" x="230.75" y="6.14" width="5" height="5"/>
    <rect class="cls-1" x="224.75" y="6.14" width="5" height="5"/>
    <rect class="cls-1" x="218.75" y="6.14" width="5" height="5"/>
    <rect class="cls-1" x="212.75" y="6.14" width="5" height="5"/>
    <rect class="cls-1" x="206.75" y="6.14" width="5" height="5"/>
    <rect class="cls-1" x="200.75" y="6.14" width="5" height="5"/>
    <rect class="cls-1" x="194.75" y="6.14" width="5" height="5"/>
    <rect class="cls-1" x="188.75" y="6.14" width="5" height="5"/>
    <rect class="cls-1" x="182.75" y="6.14" width="5" height="5"/>
    <rect class="cls-1" x="176.75" y="6.14" width="5" height="5"/>
    <rect class="cls-1" x="170.75" y="6.14" width="5" height="5"/>
    <rect class="cls-1" x="164.75" y="6.14" width="5" height="5"/>
    <rect class="cls-1" x="158.75" y="6.14" width="5" height="5"/>
    <rect class="cls-1" x="152.75" y="6.14" width="5" height="5"/>
    <rect class="cls-1" x="146.75" y="6.14" width="5" height="5"/>
    <rect class="cls-1" x="140.75" y="6.14" width="5" height="5"/>
    <rect class="cls-1" x="134.75" y="6.14" width="5" height="5"/>
    <rect class="cls-1" x="128.75" y="6.14" width="5" height="5"/>
    <rect class="cls-1" x="122.75" y="6.14" width="5" height="5"/>
    <rect class="cls-1" x="116.75" y="6.14" width="5" height="5"/>
    <rect class="cls-1" x="110.75" y="6.14" width="5" height="5"/>
    <rect class="cls-1" x="104.75" y="6.14" width="5" height="5"/>
    <rect class="cls-1" x="98.75" y="6.14" width="5" height="5"/>
    <rect class="cls-1" x="92.75" y="6.14" width="5" height="5"/>
    <rect class="cls-1" x="86.75" y="6.14" width="5" height="5"/>
    <rect class="cls-1" x="80.75" y="6.14" width="5" height="5"/>
    <rect class="cls-1" x="74.75" y="6.14" width="5" height="5"/>
    <rect class="cls-1" x="68.75" y="6.14" width="5" height="5"/>
    <rect class="cls-1" x="62.75" y="6.14" width="5" height="5"/>
    <rect class="cls-1" x="56.75" y="6.14" width="5" height="5"/>
    <rect class="cls-1" x="50.75" y="6.14" width="5" height="5"/>
    <rect class="cls-1" x="44.75" y="6.14" width="5" height="5"/>
    <rect class="cls-1" x="38.75" y="6.14" width="5" height="5"/>
    <rect class="cls-1" x="32.75" y="6.14" width="5" height="5"/>
    <rect class="cls-1" x="26.75" y="6.14" width="5" height="5"/>
  </g>
</svg>
