<svg id="C2-duo_Image" data-name="C2-duo Image" xmlns="http://www.w3.org/2000/svg" width="319.25" height="36.63" viewBox="0 0 319.25 36.63">
  <defs>
    <style>
      .cls-1 {
        fill: #bfbfbf;
      }

      .cls-2 {
        fill: #009688;
      }
    </style>
  </defs>
  <title>shipcaps</title>
  <path class="cls-1" d="M281.87,18.86c12.74,0,25.41.13,37.38-5.14v0.85c-1.41,4.39-2.87,8.76-4.17,13.18a2.57,2.57,0,0,0,.82,2.06c2.61,2.34,1.83,4.56,0,6.82H8.49C7.79,32.34,7.43,28,3.87,24.75A55.14,55.14,0,0,1,0,20.51V18L11.45,18V0H25.54V18.05Z"/>
  <g>
    <rect class="cls-2" x="261" y="5.46" width="5" height="5"/>
    <rect class="cls-2" x="255" y="5.46" width="5" height="5"/>
    <rect class="cls-2" x="249" y="5.46" width="5" height="5"/>
    <rect class="cls-2" x="243" y="5.46" width="5" height="5"/>
    <rect class="cls-2" x="237" y="5.46" width="5" height="5"/>
    <rect class="cls-2" x="231" y="5.46" width="5" height="5"/>
    <rect class="cls-2" x="225" y="5.46" width="5" height="5"/>
    <rect class="cls-2" x="219" y="5.46" width="5" height="5"/>
    <rect class="cls-2" x="213" y="5.46" width="5" height="5"/>
    <rect class="cls-2" x="207" y="5.46" width="5" height="5"/>
    <rect class="cls-2" x="201" y="5.46" width="5" height="5"/>
    <rect class="cls-2" x="195" y="5.46" width="5" height="5"/>
    <rect class="cls-2" x="189" y="5.46" width="5" height="5"/>
    <rect class="cls-2" x="183" y="5.46" width="5" height="5"/>
    <rect class="cls-2" x="177" y="5.46" width="5" height="5"/>
    <rect class="cls-2" x="171" y="5.46" width="5" height="5"/>
    <rect class="cls-2" x="165" y="5.46" width="5" height="5"/>
    <rect class="cls-2" x="159" y="5.46" width="5" height="5"/>
    <rect class="cls-2" x="153" y="5.46" width="5" height="5"/>
    <rect class="cls-2" x="147" y="5.46" width="5" height="5"/>
    <rect class="cls-2" x="141" y="5.46" width="5" height="5"/>
    <rect class="cls-2" x="135" y="5.46" width="5" height="5"/>
    <rect class="cls-2" x="129" y="5.46" width="5" height="5"/>
    <rect class="cls-2" x="123" y="5.46" width="5" height="5"/>
    <rect class="cls-2" x="117" y="5.46" width="5" height="5"/>
    <rect class="cls-2" x="111" y="5.46" width="5" height="5"/>
    <rect class="cls-2" x="105" y="5.46" width="5" height="5"/>
    <rect class="cls-2" x="99" y="5.46" width="5" height="5"/>
    <rect class="cls-2" x="93" y="5.46" width="5" height="5"/>
    <rect class="cls-2" x="87" y="5.46" width="5" height="5"/>
    <rect class="cls-2" x="81" y="5.46" width="5" height="5"/>
    <rect class="cls-2" x="75" y="5.46" width="5" height="5"/>
    <rect class="cls-2" x="69" y="5.46" width="5" height="5"/>
    <rect class="cls-2" x="63" y="5.46" width="5" height="5"/>
    <rect class="cls-2" x="57" y="5.46" width="5" height="5"/>
    <rect class="cls-2" x="51" y="5.46" width="5" height="5"/>
    <rect class="cls-2" x="45" y="5.46" width="5" height="5"/>
    <rect class="cls-2" x="39" y="5.46" width="5" height="5"/>
    <rect class="cls-2" x="33" y="5.46" width="5" height="5"/>
    <rect class="cls-2" x="27" y="5.46" width="5" height="5"/>
  </g>
  <g>
    <rect class="cls-2" x="261" y="11.46" width="5" height="5"/>
    <rect class="cls-2" x="255" y="11.46" width="5" height="5"/>
    <rect class="cls-2" x="249" y="11.46" width="5" height="5"/>
    <rect class="cls-2" x="243" y="11.46" width="5" height="5"/>
    <rect class="cls-2" x="237" y="11.46" width="5" height="5"/>
    <rect class="cls-2" x="231" y="11.46" width="5" height="5"/>
    <rect class="cls-2" x="225" y="11.46" width="5" height="5"/>
    <rect class="cls-2" x="219" y="11.46" width="5" height="5"/>
    <rect class="cls-2" x="213" y="11.46" width="5" height="5"/>
    <rect class="cls-2" x="207" y="11.46" width="5" height="5"/>
    <rect class="cls-2" x="201" y="11.46" width="5" height="5"/>
    <rect class="cls-2" x="195" y="11.46" width="5" height="5"/>
    <rect class="cls-2" x="189" y="11.46" width="5" height="5"/>
    <rect class="cls-2" x="183" y="11.46" width="5" height="5"/>
    <rect class="cls-2" x="177" y="11.46" width="5" height="5"/>
    <rect class="cls-2" x="171" y="11.46" width="5" height="5"/>
    <rect class="cls-2" x="165" y="11.46" width="5" height="5"/>
    <rect class="cls-2" x="159" y="11.46" width="5" height="5"/>
    <rect class="cls-2" x="153" y="11.46" width="5" height="5"/>
    <rect class="cls-2" x="147" y="11.46" width="5" height="5"/>
    <rect class="cls-2" x="141" y="11.46" width="5" height="5"/>
    <rect class="cls-2" x="135" y="11.46" width="5" height="5"/>
    <rect class="cls-2" x="129" y="11.46" width="5" height="5"/>
    <rect class="cls-2" x="123" y="11.46" width="5" height="5"/>
    <rect class="cls-2" x="117" y="11.46" width="5" height="5"/>
    <rect class="cls-2" x="111" y="11.46" width="5" height="5"/>
    <rect class="cls-2" x="105" y="11.46" width="5" height="5"/>
    <rect class="cls-2" x="99" y="11.46" width="5" height="5"/>
    <rect class="cls-2" x="93" y="11.46" width="5" height="5"/>
    <rect class="cls-2" x="87" y="11.46" width="5" height="5"/>
    <rect class="cls-2" x="81" y="11.46" width="5" height="5"/>
    <rect class="cls-2" x="75" y="11.46" width="5" height="5"/>
    <rect class="cls-2" x="69" y="11.46" width="5" height="5"/>
    <rect class="cls-2" x="63" y="11.46" width="5" height="5"/>
    <rect class="cls-2" x="57" y="11.46" width="5" height="5"/>
    <rect class="cls-2" x="51" y="11.46" width="5" height="5"/>
    <rect class="cls-2" x="45" y="11.46" width="5" height="5"/>
    <rect class="cls-2" x="39" y="11.46" width="5" height="5"/>
    <rect class="cls-2" x="33" y="11.46" width="5" height="5"/>
    <rect class="cls-2" x="27" y="11.46" width="5" height="5"/>
  </g>
</svg>
