<svg id="C2-duo_Image" data-name="C2-duo Image" xmlns="http://www.w3.org/2000/svg" width="303.29" height="34.82" viewBox="0 0 303.29 34.82">
  <defs>
    <style>
      .cls-1 {
        fill: #bfbfbf;
      }

      .cls-2 {
        fill: #009688;
      }
    </style>
  </defs>
  <title>shipcaps</title>
  <path class="cls-1" d="M267.78,17.93c12.1,0,24.14.12,35.51-4.89v0.81c-1.34,4.17-2.73,8.33-4,12.53a2.44,2.44,0,0,0,.78,2c2.48,2.23,1.73,4.34,0,6.48H8.07c-0.66-4.07-1-8.24-4.39-11.29a52.41,52.41,0,0,1-3.67-4V17.07l11.7,0.05V0H25.79V17.16Z"/>
  <g>
    <rect class="cls-2" x="81.25" y="5.32" width="5" height="5"/>
    <rect class="cls-2" x="75.25" y="5.32" width="5" height="5"/>
    <rect class="cls-2" x="69.25" y="5.32" width="5" height="5"/>
    <rect class="cls-2" x="63.25" y="5.32" width="5" height="5"/>
    <rect class="cls-2" x="57.25" y="5.32" width="5" height="5"/>
    <rect class="cls-2" x="51.25" y="5.32" width="5" height="5"/>
    <rect class="cls-2" x="45.25" y="5.32" width="5" height="5"/>
    <rect class="cls-2" x="39.25" y="5.32" width="5" height="5"/>
    <rect class="cls-2" x="33.25" y="5.32" width="5" height="5"/>
    <rect class="cls-2" x="27.25" y="5.32" width="5" height="5"/>
  </g>
  <g>
    <rect class="cls-2" x="261.25" y="11.12" width="5" height="5"/>
    <rect class="cls-2" x="255.25" y="11.12" width="5" height="5"/>
    <rect class="cls-2" x="249.25" y="11.12" width="5" height="5"/>
    <rect class="cls-2" x="243.25" y="11.12" width="5" height="5"/>
    <rect class="cls-2" x="237.25" y="11.12" width="5" height="5"/>
    <rect class="cls-2" x="231.25" y="11.12" width="5" height="5"/>
    <rect class="cls-2" x="225.25" y="11.12" width="5" height="5"/>
    <rect class="cls-2" x="219.25" y="11.12" width="5" height="5"/>
    <rect class="cls-2" x="213.25" y="11.12" width="5" height="5"/>
    <rect class="cls-2" x="207.25" y="11.12" width="5" height="5"/>
    <rect class="cls-2" x="201.25" y="11.12" width="5" height="5"/>
    <rect class="cls-2" x="195.25" y="11.12" width="5" height="5"/>
    <rect class="cls-2" x="189.25" y="11.12" width="5" height="5"/>
    <rect class="cls-2" x="183.25" y="11.12" width="5" height="5"/>
    <rect class="cls-2" x="177.25" y="11.12" width="5" height="5"/>
    <rect class="cls-2" x="171.25" y="11.12" width="5" height="5"/>
    <rect class="cls-2" x="165.25" y="11.12" width="5" height="5"/>
    <rect class="cls-2" x="159.25" y="11.12" width="5" height="5"/>
    <rect class="cls-2" x="153.25" y="11.12" width="5" height="5"/>
    <rect class="cls-2" x="147.25" y="11.12" width="5" height="5"/>
    <rect class="cls-2" x="141.25" y="11.12" width="5" height="5"/>
    <rect class="cls-2" x="135.25" y="11.12" width="5" height="5"/>
    <rect class="cls-2" x="129.25" y="11.12" width="5" height="5"/>
    <rect class="cls-2" x="123.25" y="11.12" width="5" height="5"/>
    <rect class="cls-2" x="117.25" y="11.12" width="5" height="5"/>
    <rect class="cls-2" x="111.25" y="11.12" width="5" height="5"/>
    <rect class="cls-2" x="105.25" y="11.12" width="5" height="5"/>
    <rect class="cls-2" x="99.25" y="11.12" width="5" height="5"/>
    <rect class="cls-2" x="93.25" y="11.12" width="5" height="5"/>
    <rect class="cls-2" x="87.25" y="11.12" width="5" height="5"/>
    <rect class="cls-2" x="81.25" y="11.12" width="5" height="5"/>
    <rect class="cls-2" x="75.25" y="11.12" width="5" height="5"/>
    <rect class="cls-2" x="69.25" y="11.12" width="5" height="5"/>
    <rect class="cls-2" x="63.25" y="11.12" width="5" height="5"/>
    <rect class="cls-2" x="57.25" y="11.12" width="5" height="5"/>
    <rect class="cls-2" x="51.25" y="11.12" width="5" height="5"/>
    <rect class="cls-2" x="45.25" y="11.12" width="5" height="5"/>
    <rect class="cls-2" x="39.25" y="11.12" width="5" height="5"/>
    <rect class="cls-2" x="33.25" y="11.12" width="5" height="5"/>
    <rect class="cls-2" x="27.25" y="11.12" width="5" height="5"/>
  </g>
</svg>
