<svg id="C2-duo_Image" data-name="C2-duo Image" xmlns="http://www.w3.org/2000/svg" width="282" height="32.38" viewBox="0 0 282 32.38">
  <defs>
    <style>
      .cls-1 {
        fill: #bfbfbf;
      }

      .cls-2 {
        fill: #009688;
      }
    </style>
  </defs>
  <title>shipcaps</title>
  <path class="cls-1" d="M249,16.67c11.25,0,22.44.11,33-4.54v0.75c-1.25,3.88-2.54,7.75-3.68,11.65a2.27,2.27,0,0,0,.73,1.82c2.31,2.07,1.61,4,0,6H7.5c-0.62-3.79-.94-7.66-4.08-10.5A48.73,48.73,0,0,1,0,18.13V15.88l12,0V0H25.75V16Z"/>
  <g>
    <rect class="cls-2" x="81.25" y="3.92" width="5" height="5"/>
    <rect class="cls-2" x="75.25" y="3.92" width="5" height="5"/>
    <rect class="cls-2" x="69.25" y="3.92" width="5" height="5"/>
    <rect class="cls-2" x="63.25" y="3.92" width="5" height="5"/>
    <rect class="cls-2" x="57.25" y="3.92" width="5" height="5"/>
    <rect class="cls-2" x="51.25" y="3.92" width="5" height="5"/>
    <rect class="cls-2" x="45.25" y="3.92" width="5" height="5"/>
    <rect class="cls-2" x="39.25" y="3.92" width="5" height="5"/>
    <rect class="cls-2" x="33.25" y="3.92" width="5" height="5"/>
    <rect class="cls-2" x="27.25" y="3.92" width="5" height="5"/>
  </g>
  <g>
    <rect class="cls-2" x="261.25" y="9.72" width="5" height="5"/>
    <rect class="cls-2" x="255.25" y="9.72" width="5" height="5"/>
    <rect class="cls-2" x="249.25" y="9.72" width="5" height="5"/>
    <rect class="cls-2" x="243.25" y="9.72" width="5" height="5"/>
    <rect class="cls-2" x="237.25" y="9.72" width="5" height="5"/>
    <rect class="cls-2" x="231.25" y="9.72" width="5" height="5"/>
    <rect class="cls-2" x="225.25" y="9.72" width="5" height="5"/>
    <rect class="cls-2" x="219.25" y="9.72" width="5" height="5"/>
    <rect class="cls-2" x="213.25" y="9.72" width="5" height="5"/>
    <rect class="cls-2" x="207.25" y="9.72" width="5" height="5"/>
    <rect class="cls-2" x="201.25" y="9.72" width="5" height="5"/>
    <rect class="cls-2" x="195.25" y="9.72" width="5" height="5"/>
    <rect class="cls-2" x="189.25" y="9.72" width="5" height="5"/>
    <rect class="cls-2" x="183.25" y="9.72" width="5" height="5"/>
    <rect class="cls-2" x="177.25" y="9.72" width="5" height="5"/>
    <rect class="cls-2" x="171.25" y="9.72" width="5" height="5"/>
    <rect class="cls-2" x="165.25" y="9.72" width="5" height="5"/>
    <rect class="cls-2" x="159.25" y="9.72" width="5" height="5"/>
    <rect class="cls-2" x="153.25" y="9.72" width="5" height="5"/>
    <rect class="cls-2" x="147.25" y="9.72" width="5" height="5"/>
    <rect class="cls-2" x="141.25" y="9.72" width="5" height="5"/>
    <rect class="cls-2" x="135.25" y="9.72" width="5" height="5"/>
    <rect class="cls-2" x="129.25" y="9.72" width="5" height="5"/>
    <rect class="cls-2" x="123.25" y="9.72" width="5" height="5"/>
    <rect class="cls-2" x="117.25" y="9.72" width="5" height="5"/>
    <rect class="cls-2" x="111.25" y="9.72" width="5" height="5"/>
    <rect class="cls-2" x="105.25" y="9.72" width="5" height="5"/>
    <rect class="cls-2" x="99.25" y="9.72" width="5" height="5"/>
    <rect class="cls-2" x="93.25" y="9.72" width="5" height="5"/>
    <rect class="cls-2" x="87.25" y="9.72" width="5" height="5"/>
    <rect class="cls-2" x="81.25" y="9.72" width="5" height="5"/>
    <rect class="cls-2" x="75.25" y="9.72" width="5" height="5"/>
    <rect class="cls-2" x="69.25" y="9.72" width="5" height="5"/>
    <rect class="cls-2" x="63.25" y="9.72" width="5" height="5"/>
    <rect class="cls-2" x="57.25" y="9.72" width="5" height="5"/>
    <rect class="cls-2" x="51.25" y="9.72" width="5" height="5"/>
    <rect class="cls-2" x="45.25" y="9.72" width="5" height="5"/>
    <rect class="cls-2" x="39.25" y="9.72" width="5" height="5"/>
    <rect class="cls-2" x="33.25" y="9.72" width="5" height="5"/>
    <rect class="cls-2" x="27.25" y="9.72" width="5" height="5"/>
  </g>
</svg>
