<svg id="C2-duo_Image" data-name="C2-duo Image" xmlns="http://www.w3.org/2000/svg" width="348.33" height="39.96" viewBox="0 0 348.33 39.96">
  <defs>
    <style>
      .cls-1 {
        fill: #bfbfbf;
      }

      .cls-2 {
        fill: #009688;
      }
    </style>
  </defs>
  <title>shipcaps</title>
  <path class="cls-1" d="M307.55,20.58c13.9,0,27.72.14,40.79-5.61v0.93c-1.54,4.79-3.13,9.56-4.55,14.38a2.8,2.8,0,0,0,.9,2.25c2.85,2.56,2,5-.05,7.44H9.26c-0.76-4.67-1.16-9.45-5-13A60.17,60.17,0,0,1,0,22.37V19.6l11.82,0.06V0h14V19.7Z"/>
  <g>
    <rect class="cls-2" x="201" y="7" width="5" height="5"/>
    <rect class="cls-2" x="195" y="7" width="5" height="5"/>
    <rect class="cls-2" x="189" y="7" width="5" height="5"/>
    <rect class="cls-2" x="183" y="7" width="5" height="5"/>
    <rect class="cls-2" x="177" y="7" width="5" height="5"/>
    <rect class="cls-2" x="171" y="7" width="5" height="5"/>
    <rect class="cls-2" x="165" y="7" width="5" height="5"/>
    <rect class="cls-2" x="159" y="7" width="5" height="5"/>
    <rect class="cls-2" x="153" y="7" width="5" height="5"/>
    <rect class="cls-2" x="147" y="7" width="5" height="5"/>
    <rect class="cls-2" x="141" y="7" width="5" height="5"/>
    <rect class="cls-2" x="135" y="7" width="5" height="5"/>
    <rect class="cls-2" x="129" y="7" width="5" height="5"/>
    <rect class="cls-2" x="123" y="7" width="5" height="5"/>
    <rect class="cls-2" x="117" y="7" width="5" height="5"/>
    <rect class="cls-2" x="111" y="7" width="5" height="5"/>
    <rect class="cls-2" x="105" y="7" width="5" height="5"/>
    <rect class="cls-2" x="99" y="7" width="5" height="5"/>
    <rect class="cls-2" x="93" y="7" width="5" height="5"/>
    <rect class="cls-2" x="87" y="7" width="5" height="5"/>
    <rect class="cls-2" x="81" y="7" width="5" height="5"/>
    <rect class="cls-2" x="75" y="7" width="5" height="5"/>
    <rect class="cls-2" x="69" y="7" width="5" height="5"/>
    <rect class="cls-2" x="63" y="7" width="5" height="5"/>
    <rect class="cls-2" x="57" y="7" width="5" height="5"/>
    <rect class="cls-2" x="51" y="7" width="5" height="5"/>
    <rect class="cls-2" x="45" y="7" width="5" height="5"/>
    <rect class="cls-2" x="39" y="7" width="5" height="5"/>
    <rect class="cls-2" x="33" y="7" width="5" height="5"/>
    <rect class="cls-2" x="27" y="7" width="5" height="5"/>
  </g>
  <g>
    <rect class="cls-2" x="321" y="13" width="5" height="5"/>
    <rect class="cls-2" x="315" y="13" width="5" height="5"/>
    <rect class="cls-2" x="309" y="13" width="5" height="5"/>
    <rect class="cls-2" x="303" y="13" width="5" height="5"/>
    <rect class="cls-2" x="297" y="13" width="5" height="5"/>
    <rect class="cls-2" x="291" y="13" width="5" height="5"/>
    <rect class="cls-2" x="285" y="13" width="5" height="5"/>
    <rect class="cls-2" x="279" y="13" width="5" height="5"/>
    <rect class="cls-2" x="273" y="13" width="5" height="5"/>
    <rect class="cls-2" x="267" y="13" width="5" height="5"/>
    <rect class="cls-2" x="261" y="13" width="5" height="5"/>
    <rect class="cls-2" x="255" y="13" width="5" height="5"/>
    <rect class="cls-2" x="249" y="13" width="5" height="5"/>
    <rect class="cls-2" x="243" y="13" width="5" height="5"/>
    <rect class="cls-2" x="237" y="13" width="5" height="5"/>
    <rect class="cls-2" x="231" y="13" width="5" height="5"/>
    <rect class="cls-2" x="225" y="13" width="5" height="5"/>
    <rect class="cls-2" x="219" y="13" width="5" height="5"/>
    <rect class="cls-2" x="213" y="13" width="5" height="5"/>
    <rect class="cls-2" x="207" y="13" width="5" height="5"/>
    <rect class="cls-2" x="201" y="13" width="5" height="5"/>
    <rect class="cls-2" x="195" y="13" width="5" height="5"/>
    <rect class="cls-2" x="189" y="13" width="5" height="5"/>
    <rect class="cls-2" x="183" y="13" width="5" height="5"/>
    <rect class="cls-2" x="177" y="13" width="5" height="5"/>
    <rect class="cls-2" x="171" y="13" width="5" height="5"/>
    <rect class="cls-2" x="165" y="13" width="5" height="5"/>
    <rect class="cls-2" x="159" y="13" width="5" height="5"/>
    <rect class="cls-2" x="153" y="13" width="5" height="5"/>
    <rect class="cls-2" x="147" y="13" width="5" height="5"/>
    <rect class="cls-2" x="141" y="13" width="5" height="5"/>
    <rect class="cls-2" x="135" y="13" width="5" height="5"/>
    <rect class="cls-2" x="129" y="13" width="5" height="5"/>
    <rect class="cls-2" x="123" y="13" width="5" height="5"/>
    <rect class="cls-2" x="117" y="13" width="5" height="5"/>
    <rect class="cls-2" x="111" y="13" width="5" height="5"/>
    <rect class="cls-2" x="105" y="13" width="5" height="5"/>
    <rect class="cls-2" x="99" y="13" width="5" height="5"/>
    <rect class="cls-2" x="93" y="13" width="5" height="5"/>
    <rect class="cls-2" x="87" y="13" width="5" height="5"/>
    <rect class="cls-2" x="81" y="13" width="5" height="5"/>
    <rect class="cls-2" x="75" y="13" width="5" height="5"/>
    <rect class="cls-2" x="69" y="13" width="5" height="5"/>
    <rect class="cls-2" x="63" y="13" width="5" height="5"/>
    <rect class="cls-2" x="57" y="13" width="5" height="5"/>
    <rect class="cls-2" x="51" y="13" width="5" height="5"/>
    <rect class="cls-2" x="45" y="13" width="5" height="5"/>
    <rect class="cls-2" x="39" y="13" width="5" height="5"/>
    <rect class="cls-2" x="33" y="13" width="5" height="5"/>
    <rect class="cls-2" x="27" y="13" width="5" height="5"/>
  </g>
</svg>
