<svg id="C2-duo_Image" data-name="C2-duo Image" xmlns="http://www.w3.org/2000/svg" width="266.04" height="30.54" viewBox="0 0 266.04 30.54">
  <defs>
    <style>
      .cls-1 {
        fill: #bfbfbf;
      }

      .cls-2 {
        fill: #009688;
      }
    </style>
  </defs>
  <title>shipcaps</title>
  <path class="cls-1" d="M234.89,14.78c10.62,0,21.17,1.05,31.15-3.34v0.71c-1.18,3.66-2.39,7.31-3.47,11a2.14,2.14,0,0,0,.68,1.72c2.18,2,1.52,3.8,0,5.68H7.08c-0.58-3.57-.88-7.23-3.85-9.9A46,46,0,0,1,0,17.1V15l11.45,0V0H25.54V15.05Z"/>
  <g>
    <rect class="cls-2" x="225" y="8.96" width="5" height="5"/>
    <rect class="cls-2" x="219" y="8.96" width="5" height="5"/>
    <rect class="cls-2" x="213" y="8.96" width="5" height="5"/>
    <rect class="cls-2" x="207" y="8.96" width="5" height="5"/>
    <rect class="cls-2" x="201" y="8.96" width="5" height="5"/>
    <rect class="cls-2" x="195" y="8.96" width="5" height="5"/>
    <rect class="cls-2" x="189" y="8.96" width="5" height="5"/>
    <rect class="cls-2" x="183" y="8.96" width="5" height="5"/>
    <rect class="cls-2" x="177" y="8.96" width="5" height="5"/>
    <rect class="cls-2" x="171" y="8.96" width="5" height="5"/>
    <rect class="cls-2" x="165" y="8.96" width="5" height="5"/>
    <rect class="cls-2" x="159" y="8.96" width="5" height="5"/>
    <rect class="cls-2" x="153" y="8.96" width="5" height="5"/>
    <rect class="cls-2" x="147" y="8.96" width="5" height="5"/>
    <rect class="cls-2" x="141" y="8.96" width="5" height="5"/>
    <rect class="cls-2" x="135" y="8.96" width="5" height="5"/>
    <rect class="cls-2" x="129" y="8.96" width="5" height="5"/>
    <rect class="cls-2" x="123" y="8.96" width="5" height="5"/>
    <rect class="cls-2" x="117" y="8.96" width="5" height="5"/>
    <rect class="cls-2" x="111" y="8.96" width="5" height="5"/>
    <rect class="cls-2" x="105" y="8.96" width="5" height="5"/>
    <rect class="cls-2" x="99" y="8.96" width="5" height="5"/>
    <rect class="cls-2" x="93" y="8.96" width="5" height="5"/>
    <rect class="cls-2" x="87" y="8.96" width="5" height="5"/>
    <rect class="cls-2" x="81" y="8.96" width="5" height="5"/>
    <rect class="cls-2" x="75" y="8.96" width="5" height="5"/>
    <rect class="cls-2" x="69" y="8.96" width="5" height="5"/>
    <rect class="cls-2" x="63" y="8.96" width="5" height="5"/>
    <rect class="cls-2" x="57" y="8.96" width="5" height="5"/>
    <rect class="cls-2" x="51" y="8.96" width="5" height="5"/>
    <rect class="cls-2" x="45" y="8.96" width="5" height="5"/>
    <rect class="cls-2" x="39" y="8.96" width="5" height="5"/>
    <rect class="cls-2" x="33" y="8.96" width="5" height="5"/>
    <rect class="cls-2" x="27" y="8.96" width="5" height="5"/>
  </g>
</svg>
